# xmcd
#
# Track frame offsets:
#	150
#	16293
#	36570
#
# Disc length: 750 seconds
#
# Revision: 0
# Processed by: cddbd v1.5.2PL0 Copyright (c) Steve Scherf et al.
# Submitted via: audiograbber 1.83.01
#
DISCID=1f02ec03
DTITLE=Lousie Tucker - Only for You
DYEAR=1900
DGENRE=Ballad
TTITLE0=Only For You
TTITLE1=Hiding From The Eyes Of Love
TTITLE2=George
EXTD=
EXTT0=
EXTT1=
EXTT2=
PLAYORDER=
